<svg id="visual" viewBox="0 0 900 600" width="900" height="600" xmlns="http://www.w3.org/2000/svg" xmlns:xlink="http://www.w3.org/1999/xlink" version="1.1"><rect x="0" y="0" width="900" height="600" fill="#333333"></rect><path d="M0 489L18.8 483.8C37.7 478.7 75.3 468.3 112.8 465.5C150.3 462.7 187.7 467.3 225.2 472.2C262.7 477 300.3 482 337.8 482.3C375.3 482.7 412.7 478.3 450.2 473.2C487.7 468 525.3 462 562.8 464.8C600.3 467.7 637.7 479.3 675.2 487C712.7 494.7 750.3 498.3 787.8 498C825.3 497.7 862.7 493.3 881.3 491.2L900 489L900 601L881.3 601C862.7 601 825.3 601 787.8 601C750.3 601 712.7 601 675.2 601C637.7 601 600.3 601 562.8 601C525.3 601 487.7 601 450.2 601C412.7 601 375.3 601 337.8 601C300.3 601 262.7 601 225.2 601C187.7 601 150.3 601 112.8 601C75.3 601 37.7 601 18.8 601L0 601Z" fill="#23BE75" stroke-linecap="round" stroke-linejoin="miter"></path></svg>