<svg width="900" height="600" xmlns="http://www.w3.org/2000/svg" version="1.1">

 <g>
  <title>Layer 1</title>
  <rect stroke="null" id="svg_1" fill="#e2e8f0" height="600" width="900" y="0" x="0"/>
  <path id="svg_2" stroke-linecap="round" fill="#23BE75" d="m0,489l18.8,-5.2c18.9,-5.1 56.5,-15.5 94,-18.3c37.5,-2.8 74.9,1.8 112.4,6.7c37.5,4.8 75.1,9.8 112.6,10.1c37.5,0.4 74.9,-4 112.4,-9.1c37.5,-5.2 75.1,-11.2 112.6,-8.4c37.5,2.9 74.9,14.5 112.4,22.2c37.5,7.7 75.1,11.3 112.6,11c37.5,-0.3 74.9,-4.7 93.5,-6.8l18.7,-2.2l0,112l-18.7,0c-18.6,0 -56,0 -93.5,0c-37.5,0 -75.1,0 -112.6,0c-37.5,0 -74.9,0 -112.4,0c-37.5,0 -75.1,0 -112.6,0c-37.5,0 -74.9,0 -112.4,0c-37.5,0 -75.1,0 -112.6,0c-37.5,0 -74.9,0 -112.4,0c-37.5,0 -75.1,0 -94,0l-18.8,0l0,-112z"/>
 </g>
</svg>