<svg width="100" height="24" xmlns="http://www.w3.org/2000/svg">

 <g>
  <title>Layer 1</title>
  <path stroke="null" fill="#048309" id="svg_1" d="m35.79247,17.80587l2.38969,0a0.21309,0.18997 0 0 0 0.21309,-0.16283l0.53273,-2.46962l1.85696,0a7.42784,6.62183 0 0 0 2.29837,-0.27139a4.24666,3.78584 0 0 0 1.61342,-0.86844a4.84027,4.31505 0 0 0 1.01981,-1.15339a5.2208,4.65428 0 0 0 0.54796,-1.35693a3.6987,3.29735 0 0 0 -0.62406,-2.93097a4.01834,3.5823 0 0 0 -3.18119,-1.05841l-4.5663,0a0.24354,0.21711 0 0 0 -0.22831,0.1764l-2.1005,9.85133a0.2892,0.25782 0 0 0 0,0.1764a0.25876,0.23068 0 0 0 0.22831,0.06785zm4.33798,-8.35871l1.5221,0a2.20704,1.96755 0 0 1 1.64387,0.39351c0.25876,0.24425 0.30442,0.70561 0.16743,1.35693a2.755,2.45605 0 0 1 -0.8676,1.51976a3.30295,2.94454 0 0 1 -2.02439,0.44779l-1.21768,0l0.77627,-3.718zm14.91657,-1.28909a4.10967,3.66372 0 0 0 -2.86155,-0.69204l-1.8113,0l0.50229,-2.3882a0.22831,0.20354 0 0 0 0,-0.1764a0.24354,0.21711 0 0 0 -0.16743,0l-2.38969,0a0.21309,0.18997 0 0 0 -0.21309,0.16283l-2.1005,9.8649a0.19787,0.1764 0 0 0 0,0.16283a0.19787,0.1764 0 0 0 0.16743,0.08142l2.34403,0a0.21309,0.18997 0 0 0 0.21309,-0.1764l1.17202,-5.52272l1.68953,0c0.68494,0 0.92848,0.13569 1.00459,0.21711a1.2329,1.09912 0 0 1 0,0.8413l-0.92848,4.39646a0.19787,0.1764 0 0 0 0,0.16283a0.21309,0.18997 0 0 0 0.16743,0.08142l2.37447,0a0.24354,0.21711 0 0 0 0.22831,-0.1764l0.97414,-4.61357a2.58757,2.30679 0 0 0 -0.3653,-2.22537zm6.87989,-0.69204l-4.76417,0a0.21309,0.18997 0 0 0 -0.22831,0.1764l-2.22226,9.91918a0.24354,0.21711 0 0 0 0,0.1764a0.21309,0.18997 0 0 0 0.16743,0.06785l2.48102,0a0.21309,0.18997 0 0 0 0.22831,-0.16283l0.56318,-2.46962l1.93307,0a8.03668,7.1646 0 0 0 2.37447,-0.27139a4.5663,4.0708 0 0 0 1.79608,-0.86844a5.03815,4.49145 0 0 0 1.06547,-1.15339a5.25124,4.68142 0 0 0 0.56318,-1.35693a3.62259,3.2295 0 0 0 -0.63928,-2.93097a4.2771,3.81298 0 0 0 -3.31818,-1.12625zm0.9437,3.7587a2.78544,2.48319 0 0 1 -0.91326,1.51976a3.47038,3.09381 0 0 1 -2.08528,0.44779l-1.21768,0l0.82193,-3.74513l1.5221,0a2.43536,2.17109 0 0 1 1.71997,0.39351c0.24354,0.24425 0.24354,0.70561 0.15221,1.38407z"/>
  <text transform="matrix(0.902195 0 0 0.900405 44.174 -0.492827)" stroke="null" xml:space="preserve" text-anchor="start" font-family="Noto Sans JP" font-size="5" stroke-width="0" id="svg_2" y="19.69517" x="12.76293" fill="#000000">quizz</text>
 </g>
</svg>